<svg width="20" height="20" viewBox="0 0 20 20" fill="none" xmlns="http://www.w3.org/2000/svg">
<circle cx="10" cy="10" r="10" fill="#C4C4C4"/>
<path d="M10 9.58333C9.07957 9.58333 8.33337 8.83714 8.33337 7.91667C8.33337 6.99619 9.07957 6.25 10 6.25C10.9205 6.25 11.6667 6.99619 11.6667 7.91667C11.6667 8.83714 10.9205 9.58333 10 9.58333Z" fill="white"/>
<path d="M6.25027 13.4163C6.41177 11.4277 8.0258 10.4167 9.99306 10.4167C11.988 10.4167 13.627 11.3722 13.7491 13.4167C13.754 13.4981 13.7491 13.75 13.4361 13.75C11.8921 13.75 9.5978 13.75 6.55313 13.75C6.44863 13.75 6.24147 13.5246 6.25027 13.4163Z" fill="white"/>
</svg>
