<svg width="14" height="14" viewBox="0 0 14 14" fill="none" xmlns="http://www.w3.org/2000/svg">
<path fill-rule="evenodd" clip-rule="evenodd" d="M9.48856 6.09043C9.48856 8.15834 7.81219 9.83471 5.74428 9.83471C3.67637 9.83471 2 8.15834 2 6.09043C2 4.02252 3.67637 2.34615 5.74428 2.34615C7.81219 2.34615 9.48856 4.02252 9.48856 6.09043ZM9.5164 10.4227C8.50725 11.3021 7.18796 11.8347 5.74428 11.8347C2.5718 11.8347 0 9.26291 0 6.09043C0 2.91795 2.5718 0.346146 5.74428 0.346146C8.91676 0.346146 11.4886 2.91795 11.4886 6.09043C11.4886 7.28049 11.1267 8.38602 10.5069 9.30299C10.5324 9.32262 10.557 9.34412 10.5803 9.3675L13.2421 12.0292C13.5347 12.3218 13.5347 12.7962 13.2421 13.0888C12.9495 13.3814 12.4751 13.3814 12.1825 13.0888L9.52074 10.4271C9.51929 10.4256 9.51784 10.4242 9.5164 10.4227Z" fill="white"/>
</svg>
