<svg width="14" height="13" viewBox="0 0 14 13" fill="none" xmlns="http://www.w3.org/2000/svg">
<path fill-rule="evenodd" clip-rule="evenodd" d="M9.48856 5.74428C9.48856 7.81219 7.81219 9.48856 5.74428 9.48856C3.67637 9.48856 2 7.81219 2 5.74428C2 3.67637 3.67637 2 5.74428 2C7.81219 2 9.48856 3.67637 9.48856 5.74428ZM9.52074 10.081C9.51829 10.0785 9.51437 10.0784 9.51176 10.0806C8.50321 10.9576 7.18575 11.4886 5.74428 11.4886C2.5718 11.4886 0 8.91676 0 5.74428C0 2.5718 2.5718 0 5.74428 0C8.91676 0 11.4886 2.5718 11.4886 5.74428C11.4886 6.8993 11.1477 7.9747 10.561 8.87536C10.531 8.92141 10.5415 8.98249 10.5803 9.02135V9.02135L13.2421 11.6831C13.5347 11.9757 13.5347 12.4501 13.2421 12.7427C12.9495 13.0353 12.4751 13.0353 12.1825 12.7427L9.52074 10.081V10.081Z" fill="#FF4949"/>
</svg>
