<svg width="15" height="15" viewBox="0 0 15 15" fill="none" xmlns="http://www.w3.org/2000/svg">
<path fill-rule="evenodd" clip-rule="evenodd" d="M15 6.45385C15 6.01202 14.6418 5.65385 14.2 5.65385L12.6749 5.65385C12.5271 5.15703 12.3033 4.69293 12.017 4.27499L13.0209 3.27114C13.3333 2.95872 13.3333 2.45219 13.0209 2.13977L12.1533 1.2722C11.8409 0.959785 11.3343 0.959784 11.0219 1.2722L9.80667 2.48745C9.65671 2.42603 9.50306 2.37176 9.34615 2.32506L9.34615 0.800001C9.34615 0.358173 8.98798 2.14043e-07 8.54615 1.94731e-07L7.31923 1.411e-07C6.8774 1.21787e-07 6.51923 0.358173 6.51923 0.800001L6.51923 2.32506C6.07612 2.45693 5.65903 2.64922 5.2775 2.89237L4.15754 1.77241C3.84512 1.45999 3.33859 1.45999 3.02617 1.77241L2.15861 2.63998C1.84619 2.9524 1.84619 3.45893 2.15861 3.77135L3.42136 5.0341C3.33114 5.23397 3.25382 5.4409 3.19044 5.65385L1.66538 5.65385C1.22356 5.65385 0.865385 6.01202 0.865385 6.45385L0.865385 7.68077C0.865385 8.1226 1.22356 8.48077 1.66538 8.48077L3.19044 8.48077C3.23714 8.63768 3.29141 8.79132 3.35284 8.94128L2.15861 10.1355C1.84619 10.4479 1.84619 10.9545 2.15861 11.2669L3.02617 12.1344C3.33859 12.4469 3.84512 12.4469 4.15754 12.1345L5.14038 11.1516C5.55831 11.4379 6.02242 11.6617 6.51923 11.8096L6.51923 13.3346C6.51923 13.7764 6.8774 14.1346 7.31923 14.1346L8.54615 14.1346C8.98798 14.1346 9.34615 13.7764 9.34615 13.3346L9.34615 11.8096C9.5591 11.7462 9.76603 11.6689 9.9659 11.5786L11.0219 12.6347C11.3343 12.9471 11.8409 12.9471 12.1533 12.6347L13.0209 11.7671C13.3333 11.4547 13.3333 10.9481 13.0209 10.6357L12.1076 9.7225C12.3508 9.34097 12.5431 8.92388 12.6749 8.48077L14.2 8.48077C14.6418 8.48077 15 8.1226 15 7.68077L15 6.45385ZM5.10577 7.06731C5.10577 8.62857 6.37142 9.89423 7.93269 9.89423C9.49396 9.89423 10.7596 8.62857 10.7596 7.06731C10.7596 5.50604 9.49396 4.24038 7.93269 4.24038C6.37142 4.24038 5.10577 5.50604 5.10577 7.06731Z" fill="white"/>
</svg>
