<svg width="10" height="10" viewBox="0 0 10 10" fill="none" xmlns="http://www.w3.org/2000/svg">
<path d="M5.00004 4.58333C4.07957 4.58333 3.33337 3.83714 3.33337 2.91667C3.33337 1.99619 4.07957 1.25 5.00004 1.25C5.92052 1.25 6.66671 1.99619 6.66671 2.91667C6.66671 3.83714 5.92052 4.58333 5.00004 4.58333Z" fill="#B1B9FF"/>
<path d="M1.25027 8.41636C1.41177 6.42774 3.0258 5.41669 4.99306 5.41669C6.98801 5.41669 8.62703 6.37218 8.74913 8.41669C8.75399 8.49813 8.74913 8.75002 8.43612 8.75002C6.89214 8.75002 4.5978 8.75002 1.55313 8.75002C1.44863 8.75002 1.24147 8.52468 1.25027 8.41636Z" fill="#B1B9FF"/>
</svg>
